<!--?xml version="1.0" standalone="no"?-->
              <svg id="sw-js-blob-svg" viewBox="0 0 100 100" xmlns="http://www.w3.org/2000/svg" version="1.1">
                    <defs> 
                        <linearGradient id="sw-gradient" x1="0" x2="1" y1="1" y2="0">
                            <stop id="stop1" stop-color="rgba(248, 117, 55, 1)" offset="0%"></stop>
                            <stop id="stop2" stop-color="rgba(251, 168, 31, 1)" offset="100%"></stop>
                        </linearGradient>
                    </defs>
                <path fill="url(#sw-gradient)" d="M25.2,-31C30.5,-25.7,31.1,-15.6,33,-5.7C34.9,4.2,38.1,14,35.5,22.4C32.9,30.7,24.5,37.5,15.2,40.4C5.8,43.3,-4.6,42.1,-13.2,38.1C-21.8,34.1,-28.6,27.3,-33.5,19.2C-38.4,11,-41.4,1.6,-39.8,-6.9C-38.2,-15.4,-31.9,-23,-24.5,-27.9C-17.1,-32.9,-8.5,-35.2,0.7,-36.1C10,-37,20,-36.3,25.2,-31Z" width="100%" height="100%" transform="translate(50 50)" stroke-width="0" style="transition: all 0.3s ease 0s;"></path>
              </svg>